<?xml version="1.0" encoding="utf-8"?>
<!-- Generator: Adobe Illustrator 21.0.0, SVG Export Plug-In . SVG Version: 6.00 Build 0)  -->
<svg version="1.1" id="レイヤー_1" xmlns="http://www.w3.org/2000/svg" xmlns:xlink="http://www.w3.org/1999/xlink" x="0px"
	 y="0px" width="84px" height="36px" viewBox="0 0 84 36" style="enable-background:new 0 0 84 36;" xml:space="preserve">
<style type="text/css">
	.st0{fill:#ffffff;}
</style>
<title>logo</title>
<desc>Created with Sketch.</desc>
<g>
	<path class="st0" d="M42.2,1.7l0.2-0.2c-1.9,1.2-3.7-0.6-5.5-1.3c-2-0.5-3.5,0.6-4.8,2c-3.1,3.4-3.1,9-1.6,13.1
		c0.9,2,2.7,4.1,5,4.2c1.4,0.1,2.8-0.9,4-1.1c1.1-0.1,1.5,0.3,1.6,0.6v-7.7c0-0.9,0.7-1.6,1.2-1.7C41.2,8.7,40,7.9,38.9,7
		C39.9,5.2,41.1,3.4,42.2,1.7z M33.1,13c-0.7-3.7-0.5-7.9,2.1-10.6C35.6,2,36,1.8,36.5,1.7c0.7-0.1,1.4,0.2,1.8,0.8
		c0.7,1.1,0.4,1.8,0,2.5l-5,8H33.1z M38.4,11.5v5.8c0,0.6-2.3,1-3.1,0.8c-0.9-0.3-1.7-1.2-1.9-2.4v-0.4l3.8-5.8l1.6,0.9
		C38.5,10.7,38.4,11.1,38.4,11.5z"/>
	<path class="st0" d="M54.1,4.6c-0.7,0.5-1.4,1.3-1.5,2.2h-0.2l-4.7-3.7c-0.5,0.3-1,0.9-1.3,1.4c-0.3,0.8,0.1,1.7,0.6,2.3
		c2.3,2.3,4.8,4.2,6.8,6.7c0.3,0.6,0.3,1.4,0,2l-0.7,0.8l-4.7,4.1c-1.8-1.3-3.5-2.7-5.2-4.2c0.7-0.5,1.5-1.2,1.7-2.1
		c1.4,1,2.7,2.2,4.1,3.2c0.6,0.1,1.2-0.3,1.6-0.9c0.2-0.4,0.4-0.9,0.3-1.4l-0.4-0.8l-6.2-6c-0.6-0.6-0.9-1.4-0.9-2.3
		c0.1-0.7,0.4-1.4,1-1.9l4.5-3.5C50.5,1.9,52.3,3.2,54.1,4.6"/>
	<path class="st0" d="M56.6,24.8c-0.8,0.5-1.7,1.4-2.4,2.2c-0.5-1.1-1.7-1.6-2.6-2.4c-0.4,0.7-1.4,0.6-1.1,1.6
		c2,1.6,4.2,2.6,6.2,4.3c0.3,0.3,0.7,0.8,0.5,1.3l-0.5,0.5c-1.2,1.1-2.5,2.1-3.5,3.5c-1.4-1.2-2.9-2.1-4.7-2.4
		c-0.6,0.1-1.2,0.2-1.8,0.2c1.1-0.8,2.3-1.6,3.4-2.6l0.1,0.6c1,0.7,2.4,0.9,3.3,1.9c0.1,0.1,0,0.3,0.1,0.4c0.5-0.6,1.4-1.2,1.1-2.1
		c-1.6-1.7-3.6-2.6-5.4-4c-0.4-0.4-0.8-0.8-0.8-1.3c0.4-2.4,3.3-2,4.4-3.8C53.7,24,54.9,25.1,56.6,24.8"/>
	<path class="st0" d="M10.3,25.6C8.9,25.2,6.2,23,6.2,23c-0.2-0.1-0.3-0.4-0.3-0.4c-0.2-0.5-0.3,0-0.3,0c-0.1,0.6-0.8,1-0.8,1
		c-2.5,0.9-3.4,2-3.4,2c-1.8,2.5-1.3,4.6-1.3,4.6c0.7,4,4.3,4.6,4.3,4.6c1.6,0.3,3.5-0.5,3.5-0.5c0.2-0.1,0.4,0,0.4,0l1.2,0.5
		c0.3,0.2,0.2-0.1,0.2-0.1l-0.4-0.8v-0.4V29c0-0.3,0.5-0.7,0.5-0.7c0.2-0.2,0-0.2,0-0.2H9.7c-0.5,0-0.9-0.2-0.9-0.2
		c-0.1-0.1-0.5-0.1-0.5-0.1c-0.3,0,0.1-0.3,0.1-0.3C9.7,26,10.5,26,10.5,26c0.3-0.1,0.2-0.2,0.2-0.2C10.6,25.6,10.3,25.6,10.3,25.6
		 M7.2,29.5C7.1,29.7,7,29.9,7,29.9v3.5c0.1,0.2-0.2,0.2-0.2,0.2c-0.3,0-0.7,0-0.7,0c-1.2,0.2-2.3-0.9-2.3-0.9
		c-0.5-0.6-0.7-0.6-0.7-0.6c-0.4-0.1,0-0.3,0-0.3c0.5-0.5,1.4-1.4,1.4-1.4c1-0.8,1.6-1.4,1.6-1.4c0.2-0.1,0.3,0,0.3,0
		C6.5,29.3,7,29.3,7,29.3C7.3,29.4,7.2,29.5,7.2,29.5 M7.8,26.6c0,0-0.2,0-0.5,0.3l-4.5,4.2c0,0-0.2,0.1-0.2-0.2c0,0,0.1-0.3,0-0.6
		c0,0-0.7-2,0.1-3.7c0,0,0.8-1.6,1.6-1.9c0,0,0.4-0.1,0.4-0.4c0,0,0.2-0.2,0.3,0c0,0,0.2,0.3,0.6,0.6c0,0,1.3,0.9,1.6,1.2
		c0.2,0.1,0.5,0.2,0.6,0.3C7.9,26.4,8.1,26.5,7.8,26.6"/>
	<path class="st0" d="M18.2,27.4c-0.3,0.1-0.6,0.1-0.6,0.1c-0.4-0.1-1-0.8-1-0.8c-0.1-0.2-0.2,0-0.2,0c-0.3,0.4-1.4,1.2-1.4,1.2
		c-0.3,0.2-0.4-0.1-0.4-0.1c0-0.2-0.3-0.3-0.3-0.3c-0.6-0.3-1.2-0.9-1.2-0.9c-0.2-0.4-0.4-0.1-0.4-0.1c-0.4,0.5-1.9,1.1-1.9,1.1
		c-0.4,0.3,0,0.3,0,0.3c0.3,0.1,0.9,0.2,0.9,0.2c1.1,0.4,0.9,1.2,0.9,1.2v4.3c0,0.4-0.8,0.7-0.8,0.7c-0.6,0.3,0,0.2,0,0.2h3.9
		c0.2,0.1-0.1-0.2-0.1-0.2c-0.5-0.3-0.9-0.5-0.9-0.5c-0.2-0.1-0.2-0.5-0.2-0.5V29c0.1-0.4,0.6-0.5,0.6-0.5c0.2-0.1,0.2-0.2,0.2-0.2
		c0.1-0.1,0.3,0,0.3,0l0.1,0.1c0.6,0.3,0.6,0.8,0.6,0.8c0,0.4,0.3,0.1,0.3,0.1l1.6-1.6C18.4,27.3,18.2,27.4,18.2,27.4"/>
	<path class="st0" d="M25.3,33.5c-1-0.1-1-0.8-1-0.8v-4.6c0-0.5-0.5-0.7-0.5-0.7c-0.6-0.2-1.4-0.6-1.4-0.6c-0.3-0.1-0.4-0.4-0.4-0.4
		c-0.1-0.4-0.3-0.2-0.3-0.2L18.9,28c-0.6,0.5,0.3,0.2,0.3,0.2c0.9-0.3,1.8-0.3,2.6,0c0.8,0.3,0.7,0.6,0.7,0.6v0.4
		c0,0.2-0.1,0.2-0.1,0.2c-1.2-0.3-2.5,0.3-2.5,0.3C18,30.1,17.6,32,17.6,32c-0.5,2.4,1.4,2.8,1.4,2.8c0.6,0.2,0.7,0.5,0.7,0.5
		c0.3,0.3,0.3,0,0.3,0c0-0.2,2.3-2,2.3-2c0.3-0.3,0.2,0.1,0.2,0.1c-0.1,0.2-0.1,0.7-0.1,0.7c0,0.1,0.3,0.3,0.3,0.3
		c0.3,0.2,0.8,0.7,0.8,0.7c0.2,0.3,0.3-0.1,0.3-0.1c0.2-0.3,0.7-0.7,0.7-0.7c0.3-0.2,1-0.5,1-0.5C25.7,33.5,25.3,33.5,25.3,33.5
		 M22.5,30.1c-0.1,0-0.1,0.7-0.1,0.7v1c0,0.3-0.4,0.6-0.4,0.6l-1.1,0.8c-0.2,0.2-0.6-0.1-0.6-0.1c-1.3-0.8-0.5-2.2-0.5-2.2
		c0.8-1.4,2.6-1.2,2.6-1.2C22.7,29.9,22.5,30.1,22.5,30.1"/>
	<path class="st0" d="M34.3,33.1c-0.6,0.1-0.9,0-0.9,0C33.1,33,33,32.3,33,32.3v-4c0-0.3-0.2-0.5-0.2-0.5s-1.1-1.1-1.3-1.4
		c-0.1-0.3-0.3-0.1-0.3-0.1c-0.6,0.7-2,1.4-2,1.4c-0.3,0.3-0.4,0.1-0.4,0.1c-0.3-0.1-1-1.2-1-1.2c-0.1-0.5-0.4,0.1-0.4,0.1
		c-0.3,0.3-2,1.3-2,1.3c-0.4,0.4,0.1,0.3,0.1,0.3c0.5-0.2,0.9,0,0.9,0c0.7,0.3,0.6,1,0.6,1v3.9c0,0.7-0.7,0.9-0.7,0.9
		c-0.3,0.2-0.1,0.2-0.1,0.2h3.5c0.4,0-0.1-0.2-0.1-0.2c-0.8-0.2-0.7-1-0.7-1V29c0-0.3,0.1-0.3,0.1-0.3c0.9-0.5,1.2-0.8,1.2-0.8
		c0.2-0.2,0.3,0,0.3,0c0,0.4,0.5,0.8,0.5,0.8c0.2,0.2,0.2,0.4,0.2,0.4v4.6l0.8,0.9c0.1,0.2,0.2,0.1,0.3,0.1c0.2-0.2,0.6-0.4,0.6-0.4
		c0.6-0.5,1.1-0.8,1.1-0.8C34.8,33.1,34.3,33.1,34.3,33.1"/>
	<path class="st0" d="M42.5,33.9c0.3-0.1-0.1-0.2-0.1-0.2c-1-0.3-0.9-0.9-0.9-0.9v-7.6c0-0.3,0.2-0.3,0.2-0.3l0.6-0.4
		c0.3-0.2-0.2-0.1-0.2-0.1H39c-0.3,0-0.1,0.2-0.1,0.2l0.5,0.3c0.3,0.2,0.2,0.6,0.2,0.6v1.9c0,0.4-0.2,0.1-0.2,0.1
		c-0.2-0.2-0.8-0.9-0.8-0.9c-0.2-0.6-0.3-0.3-0.3-0.3c-0.1,0.4-0.6,0.7-0.6,0.7c-1.7,0.9-2.2,1.8-2.2,1.8c-1.2,1.5-0.6,3.5-0.6,3.5
		c0.5,1.4,2.5,3,2.5,3c0.1,0.1,0.2,0.1,0.2,0.2c0.2,0.2,0.3-0.1,0.3-0.1l1.4-1.4c0.3-0.2,0.3,0.1,0.3,0.1c0,0.4,0.2,0.5,0.2,0.5
		c0.6,0.3,0.8,0.8,0.8,0.8c0.1,0.4,0.2,0.2,0.3,0c0.1-0.1,0.1-0.2,0.1-0.2c0.5-0.6,1.3-1.1,1.3-1.1C42.4,34,42.5,33.9,42.5,33.9
		 M39.4,32.7c0,0-0.5,0.3-0.7,0.6c0,0-0.1,0.3-0.3,0c0,0-0.2-0.3-0.9-0.9c0,0-1.1-1-0.7-2.8c0,0,0.2-1.1,1.2-2.2
		c0,0,0.2-0.5,0.4,0.1c0,0,0,0.2,0.5,0.6l0.5,0.6c0,0,0.2,0.1,0.2,0.4V32C39.6,32.1,39.7,32.6,39.4,32.7"/>
	<path class="st0" d="M60.1,31.9l4.7-2.6c0.6-0.2,0.1-0.3,0.1-0.3c-0.4,0-0.6-0.3-0.6-0.3c-0.5-0.3-0.9-0.9-1.3-1.3
		c-0.6-0.6-1-1.2-1-1.2c0-0.5-0.2-0.2-0.4,0.1c-0.1,0.2-0.4,0.4-0.4,0.4c-3.1,1.8-3.2,4-3.2,4c-0.3,2.9,3,4.2,3,4.2
		c0.3,0.1,0.2,0.5,0.2,0.5c-0.2,0.7,0.3,0,0.3,0c0.9-1,2.7-2,2.7-2c1.1-0.6,0-0.3,0-0.3c-1.1,0.1-1.4,0-1.4,0
		c-0.8-0.1-1.5-0.5-1.5-0.5c-0.2-0.2-1-0.2-1-0.2C59.8,32.2,60.1,31.9,60.1,31.9 M59.9,30.9c0,0,0-1.2,0.1-1.6c0,0,0.3-1.1,0.8-1.6
		c0,0,0.2-0.4,0.3-0.1c0,0,0,0.2,0.1,0.3c0,0,0.7,1.2,1.1,1.3c0,0,0.4,0.2,0.1,0.4L60.2,31C60.1,31.1,59.8,31.3,59.9,30.9"/>
	<path class="st0" d="M64.9,24.9c1.4,0.5,3.3,0.2,3.3,0.2c1.1,0,0.3-0.3,0.3-0.3c-0.5,0-1.2-0.4-1.2-0.4c-0.6-0.3-0.4-0.8-0.4-0.8
		c-0.1-0.6-0.5,0-0.5,0c-0.2,0.5-1.2,0.9-1.2,0.9C64.3,24.8,64.9,24.9,64.9,24.9"/>
	<path class="st0" d="M68.6,34.2l-0.7-0.6c-0.1-0.2-0.1-0.7-0.1-0.7v-5.3c0-0.3,0.3-0.4,0.3-0.4c0.5-0.1-0.1-0.3-0.1-0.3
		c-0.5-0.2-1-0.8-1-0.8c-0.2-0.4-0.4-0.1-0.4-0.1c-0.4,0.5-1,0.9-1,0.9c-0.2,0.1-0.7,0.4-0.7,0.4c-0.4,0.3,0,0.2,0,0.2h0.7
		c0.5,0,0.4,0.6,0.4,0.6v5.3c0,0.4-0.8,0.7-0.8,0.7c-0.6,0.3,0.1,0.3,0.1,0.3h3.5C69.1,34.5,68.6,34.2,68.6,34.2"/>
	<path class="st0" d="M77.7,33.4l-0.5-0.1c-0.6-0.1-1.1-0.8-1.1-0.8L75,30.8c-0.5-0.6-0.8-0.7-0.8-0.7c-0.7-0.1-0.1-0.3-0.1-0.3
		c0.9-0.4,1.3-0.7,1.3-0.7c1.3-0.8,0.8-1.5,0.8-1.5c-0.1-0.4-1.8-1.6-1.8-1.6c-0.3-0.3-0.4-0.1-0.4-0.1c-0.1,0.4-1.4,1.5-1.4,1.5
		c-0.4,0.3-0.2,0.3-0.2,0.3c0.5-0.1,1,0.1,1,0.1C74.7,28.3,74,29,74,29c-0.4,0.5-1.8,0.8-1.8,0.8c-0.3,0-0.3-0.4-0.3-0.4V25
		c0-0.3,0.3-0.4,0.3-0.4l0.4-0.3c0.4-0.3-0.1-0.2-0.1-0.2h-3c-0.5,0-0.1,0.2-0.1,0.2l0.4,0.3c0.3,0.1,0.3,0.5,0.3,0.5v8.1
		c0,0.3-0.3,0.4-0.3,0.4l-0.7,0.5c-0.5,0.3,0.1,0.2,0.1,0.2h3.9c0.4,0-0.2-0.2-0.2-0.2l-0.5-0.3c-0.6-0.3-0.5-1-0.5-1v-2.2
		c0.3-0.8,0.9,0,0.9,0l1.9,3.2c0.2,0.3,0,0.6,0,0.6l-0.1,0.3c-0.1,0.4,0.4,0,0.4,0L77.7,33.4C78.1,33.4,77.7,33.4,77.7,33.4"/>
	<path class="st0" d="M84,30.5c0.1-1.9-2-3.5-2-3.5c-0.8-0.5-1.5-1.5-1.5-1.5C80.4,25,80.2,25,80,25.6c-0.2,0.5-0.6,0.9-0.6,0.9
		c-2.1,2.1-2.1,3.4-2.1,3.4c-0.4,2.7,1.9,4.2,1.9,4.2c0.6,0.3,1.5,1,1.5,1c0.1,0.1,0.1,0.1,0.2,0.2c0.2,0.5,0.4-0.2,0.4-0.2
		c0.3-0.7,1-1.4,1-1.4C84.2,32.2,84,30.5,84,30.5 M81.9,33.2c0,0-0.2,0.5-0.3,0.1c0,0-0.2-0.4-0.7-0.5c0,0-1.5-0.6-2.1-2.1
		c0,0-0.5-1.3,0.4-2.6c0.1-0.2,0.3-0.5,0.3-0.6c0,0,0.2-0.3,0.2,0.1c0,0,0,0.3,0.4,0.5c0.5,0.3,1.9,1.1,2.3,2.2
		C82.4,30.2,82.9,31.3,81.9,33.2"/>
</g>
</svg>
